PathFileType	4	(X/Y/Z)	Patient4_TMGait_0pt3_03_left_06.trc.trc
DataRate	CameraRate	NumFrames	NumMarkers	Units	OrigDataRate	OrigDataStartFrame	OrigNumFrames
51.470588235294	51.470588235294	4	33	mm	51.470588235294	89	       141
Frame#	Time	Sacral			L.Shoulder			Chest			R.Shoulder			Neck			R.ASIS			L.ASIS			R.Thigh.Superior			R.Thigh.Lateral			R.Thigh.Inferior			R.Patella			L.Thigh.Superior			L.Thigh.Lateral			L.Thigh.Inferior			L.Patella			L.Shank.Superior			L.Shank.Lateral			L.Shank.Inferior			R.Shank.Superior			R.Shank.Lateral			R.Shank.Inferior			R.Heel			R.Midfoot.Superior			R.Midfoot.Lateral			R.Toe			L.Heel			L.Midfoot.Lateral			L.Midfoot.Superior			L.Toe			L.Elbow			L.Wrist			R.Elbow			R.Wrist			
		X1	Y1	Z1	X2	Y2	Z2	X3	Y3	Z3	X4	Y4	Z4	X5	Y5	Z5	X6	Y6	Z6	X7	Y7	Z7	X8	Y8	Z8	X9	Y9	Z9	X10	Y10	Z10	X11	Y11	Z11	X12	Y12	Z12	X13	Y13	Z13	X14	Y14	Z14	X15	Y15	Z15	X16	Y16	Z16	X17	Y17	Z17	X18	Y18	Z18	X19	Y19	Z19	X20	Y20	Z20	X21	Y21	Z21	X22	Y22	Z22	X23	Y23	Z23	X24	Y24	Z24	X25	Y25	Z25	X26	Y26	Z26	X27	Y27	Z27	X28	Y28	Z28	X29	Y29	Z29	X30	Y30	Z30	X31	Y31	Z31	X32	Y32	Z32	X33	Y33	Z33	

89	11.979714285714	757.932982594145	1011.677924380546	472.907024124886	968.712894181885	1437.546294364089	318.214010466383	1043.162535622746	1368.079392140910	491.984730283616	934.064880274575	1443.328428103417	650.537979404136	920.049030066134	1496.316240419434	472.778612305742	974.568257867964	941.502285960053	615.239358883071	988.772362727945	961.131210725437	342.028692790401	1028.502278613332	747.264212934143	575.268894407902	955.194020599062	631.862839130943	632.956468804345	1034.148820891093	586.040805796615	549.304324899997	1041.589563494148	498.765752354211	553.689307969791	986.551292477187	727.901621827213	363.721376482373	873.900699631750	631.618010608959	294.626020815316	936.037357796097	536.582497594907	357.019144415252	919.101390929739	462.688271853466	359.275429902989	866.030812186252	405.217480791495	349.463618588506	741.684635566315	329.729188248837	296.837351531853	754.929245699433	202.401210150590	358.283938603986	1016.751476363033	408.521025549748	561.113025656155	954.195033625265	302.639528894430	628.995051439859	993.086915687153	208.917234280261	561.734498885252	859.432663280834	43.204248185583	546.975564142461	1033.970532017184	97.439765868828	562.919910947071	950.635063253954	37.551301579373	611.387948308038	1156.102659429893	45.240551415229	577.842999313037	584.641634793375	81.977729215716	392.352464825766	658.825234697885	57.874029036018	317.155517460619	752.837534644948	102.694419702212	343.068337048578	865.596082604827	36.308821629777	323.736995118720	1081.947037897207	1128.685172456663	166.395817615779	1340.680092926755	1132.808720842399	186.402956465382	802.173221430420	1122.533016565734	756.350603582693	829.778017781704	864.847777876610	791.245928442233	
90	11.999142857143	757.996604608056	1012.166739873431	478.999728146794	966.864466279270	1438.298230450236	322.335377808213	1043.238045814067	1368.692060156469	495.267544229669	935.647839773523	1443.633706988385	654.963013857097	919.847251000371	1496.934228856734	477.232652960649	975.890189179182	941.705754009301	619.148996158441	987.378015009747	961.876040267872	345.996059011702	1027.984036436602	746.576400265149	578.807909326708	953.564729826973	631.666774562740	636.253424051533	1031.752622526448	585.386084505442	552.223856702846	1038.269493343990	498.180810686614	556.053134594616	988.622862818033	729.406372825602	366.757693376450	877.733017102315	631.586586131706	297.735931771615	942.465631879647	536.935534234648	359.074342229653	926.191208227032	461.689707026584	360.311289790795	870.986525594212	405.039082818765	350.945597322099	744.455005080862	333.301918775667	298.477532832719	754.952531639077	205.220593474809	358.636892368983	1013.026131736363	408.086953487544	563.064718220490	949.997606477534	302.165830400090	630.462628681934	988.264445090166	208.672444452800	562.589082961564	853.767747007393	43.212251689846	547.101830029421	1028.387103865201	97.346561425380	563.113268124741	944.974779219653	37.495889156433	611.476797325652	1150.489373909228	44.935283766005	577.925820847509	581.677381820676	90.321765580530	392.312134009247	654.678224614840	63.074793493702	317.238869836632	750.210041262706	104.429058073894	342.807116208247	859.592174493720	35.560810642550	324.050454832445	1074.865133315779	1126.699901333171	170.686674594734	1334.119711679485	1120.327515028161	187.548962965148	807.334398289940	1122.216033367015	764.289542816512	841.074770459726	865.433852571879	800.069657944781	
91	12.018571428571	757.838942429775	1012.462384435996	485.043577814777	964.719441165889	1438.903116922872	326.370249833704	1043.080807209243	1369.127349882493	498.408650344838	937.094713122647	1443.728955475446	659.282006685425	919.470586766414	1497.396496676832	481.624152362854	977.014386207985	941.752928937331	622.880938426588	985.658248626751	962.469126050296	349.832435220672	1027.359464437983	745.813231989948	582.174512619549	951.910677269794	631.386671726117	639.420810145842	1029.363833774936	584.697269716561	555.038159700178	1034.990745970037	497.530260631380	558.353439927923	991.321818994917	731.138642021809	369.804381344005	882.925337990547	631.360095420108	300.739186960315	950.577213389328	537.434014576840	361.177725381484	935.129058539097	460.708669566810	361.364894003831	877.667835582819	404.775566668148	352.482144973044	748.922351990896	337.277719399664	300.052450815938	756.054557413803	208.634808888511	359.084134532484	1009.304545985921	407.571929546429	564.987159942450	945.758920007404	301.647972530949	631.955553751443	983.382588415684	208.377797747700	563.452779586381	848.006305981676	43.186874906964	547.229561418753	1022.722136290417	97.245469996475	563.296425848917	939.226940450809	37.439622890926	611.582468017546	1144.779556818655	44.665066149848	577.983827854802	579.561812035141	100.398225549739	392.284132470757	651.106420654594	69.679045765906	317.354330018620	748.194491484847	106.892514649779	342.652804210878	853.589211243972	34.667437381745	324.442034501855	1067.000115560728	1124.351113182217	175.101612709015	1326.186880869822	1105.828366065067	188.579491095244	812.822966296265	1121.551295032695	772.158885967828	852.957557795333	865.843592326795	808.670619988641	
92	12.038000000000	757.434527224158	1012.543546297754	490.992404514353	962.270355020515	1439.344725023962	330.307270640958	1042.672437783479	1369.351642171272	501.392307938620	938.401174414041	1443.582625030732	663.483686090417	918.907279473113	1497.679625965903	485.950836040386	977.919843403576	941.652480145471	626.395709220592	983.618972257802	962.882340089782	353.483653657613	1026.659720726372	744.993775080553	585.354438281315	950.301756561349	631.018517923861	642.431219730549	1027.077404747670	583.988646037153	557.717905897525	1031.889983896677	496.800748385929	560.566469354718	994.627597096298	733.136898257948	372.869980424852	889.496728216544	631.029805763397	303.603149803164	960.328105272118	538.194469869809	363.337073230798	945.885980990911	459.886839154091	362.461051874751	886.085585125865	404.526148447393	354.058984039649	755.137424864320	341.720879350629	301.556126888686	758.320178041211	212.729953828038	359.629794895888	1005.678771142253	406.964226546056	566.852995984617	941.549563186039	301.092296296251	633.449268834270	978.474509567353	208.023947852988	564.311004164301	842.156697566635	43.128930294663	547.358002869053	1016.975367441528	97.142593515129	563.470462241315	933.400327611317	37.381855735968	611.705663090670	1138.982451191538	44.449762817121	578.025779691811	578.475299829317	112.236863752983	392.300802566521	648.292957575428	77.797545601182	317.511582194096	746.921449324513	110.236639298879	342.613265207972	847.744343128828	33.705114857784	324.861121145505	1058.376424842274	1121.658930787622	179.640915334390	1316.621854219520	1089.299849538138	189.583987578543	818.719672785799	1120.461882450979	779.876903502507	865.557112291647	866.022937263098	816.940988327763	
